<?xml version="1.0" standalone="no"?><!DOCTYPE svg PUBLIC "-//W3C//DTD SVG 1.1//EN" "http://www.w3.org/Graphics/SVG/1.1/DTD/svg11.dtd"><svg t="1589185026834" class="icon" viewBox="0 0 1024 1024" version="1.1" xmlns="http://www.w3.org/2000/svg" p-id="30776" xmlns:xlink="http://www.w3.org/1999/xlink" width="128" height="128"><defs><style type="text/css"></style></defs><path d="M458.524 758.215L29.753 201.671l849.465 0.114-420.694 556.43z m-341.22-513.479l340.88 442.596L792.69 244.85l-675.385-0.114z m56.548-230.57l274.091 434.346-36.409 22.983L137.5 37.148l36.352-22.983z m633.8 363.121c-102.912 0-186.596-83.683-186.596-186.595 0-102.856 83.74-186.596 186.596-186.596 102.912 0 186.595 83.684 186.595 186.596s-83.683 186.595-186.595 186.595z m0-330.126c-79.19 0-143.588 64.398-143.588 143.53 0 79.133 64.398 143.531 143.588 143.531 79.132 0 143.53-64.398 143.53-143.53 0-79.133-64.398-143.531-143.53-143.531zM438.5 686.137h43.064v312.15H438.5v-312.15zM320.512 976.839h278.926v43.065H320.512v-43.065z m0 0" p-id="30777"></path></svg>