<?xml version="1.0" standalone="no"?><!DOCTYPE svg PUBLIC "-//W3C//DTD SVG 1.1//EN" "http://www.w3.org/Graphics/SVG/1.1/DTD/svg11.dtd"><svg t="1589102714290" class="icon" viewBox="0 0 1024 1024" version="1.1" xmlns="http://www.w3.org/2000/svg" p-id="10398" xmlns:xlink="http://www.w3.org/1999/xlink" width="128" height="128"><defs><style type="text/css"></style></defs><path d="M238.933333 0l-68.266666 375.466667c-9.966933 54.954667 121.6512 80.622933 119.466666 136.533333L273.066667 955.733333c-2.594133 68.266667 68.266667 68.266667 68.266666 68.266667s70.8608 0 68.266667-68.266667l-17.066667-443.733333c-2.116267-55.842133 118.306133-80.554667 119.466667-136.533333L443.733333 0H409.6l17.066667 273.066667-51.2 34.133333L358.4 0h-34.133333L307.2 307.2 256 273.066667 273.066667 0h-34.133334zM819.2 0c-50.244267 0-134.075733 44.714667-167.594667 111.752533C623.616 161.9968 614.4 274.295467 614.4 341.333333v170.666667c0 55.842133 74.410667 68.266667 102.4 68.266667L682.666667 955.733333c-6.144 67.9936 68.266667 68.266667 68.266666 68.266667s68.266667 0 68.266667-68.266667V0z" p-id="10399"></path></svg>