<?xml version="1.0" standalone="no"?><!DOCTYPE svg PUBLIC "-//W3C//DTD SVG 1.1//EN" "http://www.w3.org/Graphics/SVG/1.1/DTD/svg11.dtd"><svg t="1590031583731" class="icon" viewBox="0 0 1024 1024" version="1.1" xmlns="http://www.w3.org/2000/svg" p-id="2185" xmlns:xlink="http://www.w3.org/1999/xlink" width="128" height="128"><defs><style type="text/css"></style></defs><path d="M956.416 0H67.584c-33.792 0-61.44 27.648-61.44 61.44v901.12c0 33.792 27.648 61.44 61.44 61.44h889.344c33.792 0 61.44-27.648 61.44-61.44V61.44c0-33.792-27.648-61.44-61.952-61.44zM512 480.256c-152.064 0-275.968-123.904-275.968-275.968 0-15.872 12.8-28.672 28.672-28.672 15.872 0 28.672 12.8 28.672 28.672 0 120.32 98.304 218.624 218.624 218.624s218.624-98.304 218.624-218.624c0-15.872 12.8-28.672 28.672-28.672s28.672 12.8 28.672 28.672c0 152.064-123.904 275.968-275.968 275.968z" p-id="2186"></path></svg>