<?xml version="1.0" standalone="no"?><!DOCTYPE svg PUBLIC "-//W3C//DTD SVG 1.1//EN" "http://www.w3.org/Graphics/SVG/1.1/DTD/svg11.dtd"><svg t="1593842678610" class="icon" viewBox="0 0 1024 1024" version="1.1" xmlns="http://www.w3.org/2000/svg" p-id="1976" xmlns:xlink="http://www.w3.org/1999/xlink" width="128" height="128"><defs><style type="text/css"></style></defs><path d="M307.8 374.6c20.8 0 37.4-16.8 37.4-37.4 0-18.4 18.2-31 31.4-21.4 9.8 7 22.2 9 33.6 5.4 11.4-3.6 20.4-12.6 24-24 3.6-11.2 18.2-21 29.8-12.6 9.8 7 22.2 9 33.6 5.4 11.4-3.8 20.4-12.6 24-24 2.6-8 9.6-16 19.2-16s16.6 8 19.2 16c3.8 11.4 12.6 20.4 24 24 3 1 6 0.4 9 0.8l-63.8 39.8c-17.6 11-23 34.2-12 51.6 7.2 11.4 19.4 17.6 31.8 17.6 6.8 0 13.6-1.8 19.8-5.6l129.2-80.8c5.4 4.6 9.2 11.6 9.2 20.2 0 1.8-0.2 3.4-0.6 5.2-2.8 15.4 4.4 31 17.8 39 5.8 3.4 11.8 11 11.8 22.2H812c0-27.2-10.8-53-29.2-71.6-1-20.8-8.4-39.6-19.8-55l106.4-66.6c17.6-11 23-34.2 12-51.6-11-17.6-34.2-23-51.6-12l-139.4 87.2c-21.4-18.8-50.4-27.6-78.4-22.6-17.8-20.4-43.2-32.8-70.8-32.8-27.6 0-53 12.4-70.8 32.8-32.2-6-66 6.6-87.4 31.2-5.4-1-11-1.6-16.8-1.6-42.2 0-78.2 28.8-91 68.4-36.8 14-63.2 50.8-63.2 94h75c0-14 9.4-25.2 20.8-25.2zM137 437v37.4c0 150 88.8 279.4 216.2 339.2-16.4 4-28.8 18.2-28.8 35.8 0 20.8 16.8 37.4 37.4 37.4h300c20.8 0 37.4-16.8 37.4-37.4 0-17.6-12.4-31.8-28.8-35.8 127.6-60 216.2-189.2 216.2-339.2v-37.4H137z m418.8 283.4L512 654.6l-43.8 65.6-62.4-41.6 75-112.4c7-10.4 18.6-16.6 31.2-16.6 12.6 0 24.2 6.2 31.2 16.6l75 112.4-62.4 41.8z" p-id="1977"></path></svg>