<?xml version="1.0" standalone="no"?><!DOCTYPE svg PUBLIC "-//W3C//DTD SVG 1.1//EN" "http://www.w3.org/Graphics/SVG/1.1/DTD/svg11.dtd"><svg t="1593842578102" class="icon" viewBox="0 0 1024 1024" version="1.1" xmlns="http://www.w3.org/2000/svg" p-id="1700" xmlns:xlink="http://www.w3.org/1999/xlink" width="128" height="128"><defs><style type="text/css"></style></defs><path d="M549.6 137h-75c-186 0-337.4 114-337.4 300v37.4h750v-37.4c-0.2-186-151.6-300-337.6-300zM324.6 399.4c-20.8 0-37.4-16.8-37.4-37.4s16.8-37.4 37.4-37.4S362 341.2 362 362s-16.8 37.4-37.4 37.4z m187.4-75c-20.8 0-37.4-16.8-37.4-37.4 0-20.8 16.8-37.4 37.4-37.4 20.8 0 37.4 16.8 37.4 37.4 0.2 20.8-16.6 37.4-37.4 37.4z m187.6 75c-20.8 0-37.4-16.8-37.4-37.4s16.8-37.4 37.4-37.4c20.8 0 37.4 16.8 37.4 37.4s-16.8 37.4-37.4 37.4zM137 774.4c0 62 50.4 112.4 112.4 112.4h525c62 0 112.4-50.4 112.4-112.4v-75h-750v75zM137 549.4h750v75h-750z" p-id="1701"></path></svg>