<?xml version="1.0" standalone="no"?><!DOCTYPE svg PUBLIC "-//W3C//DTD SVG 1.1//EN" "http://www.w3.org/Graphics/SVG/1.1/DTD/svg11.dtd"><svg t="1593842240391" class="icon" viewBox="0 0 1109 1024" version="1.1" xmlns="http://www.w3.org/2000/svg" p-id="2194" xmlns:xlink="http://www.w3.org/1999/xlink" width="138.625" height="128"><defs><style type="text/css"></style></defs><path d="M1107.057778 480.568889c0 298.467556-241.976889 540.444444-540.444445 540.444444s-540.444444-241.948444-540.444444-540.444444c0-78.535111 241.976889-142.222222 540.444444-142.222222s540.444444 63.687111 540.444445 142.222222" fill="#48A0DC" p-id="2195"></path><path d="M566.613333 622.791111c-235.662222 0-426.666667-63.687111-426.666666-142.222222a170.552889 170.552889 0 0 1 144.440889-168.448 170.581333 170.581333 0 0 1 168.448-144.440889 169.813333 169.813333 0 0 1 109.568 39.907556 169.642667 169.642667 0 0 1 61.098666-11.463112 170.666667 170.666667 0 0 1 162.247111 117.873778 170.666667 170.666667 0 0 1 207.530667 166.570667c0 78.535111-191.032889 142.222222-426.666667 142.222222" fill="#E6E6E6" p-id="2196"></path><path d="M566.471111 508.586667a28.387556 28.387556 0 0 1-25.770667-40.419556l199.310223-425.898667a28.558222 28.558222 0 0 1 37.859555-13.710222 28.359111 28.359111 0 0 1 13.738667 37.745778l-199.310222 425.898667a28.444444 28.444444 0 0 1-25.827556 16.384M680.362667 508.586667a28.387556 28.387556 0 0 1-25.770667-40.419556L853.902222 42.268444a28.529778 28.529778 0 0 1 37.831111-13.710222 28.330667 28.330667 0 0 1 13.767111 37.745778l-199.310222 425.898667a28.444444 28.444444 0 0 1-25.827555 16.384" fill="#EEAF4B" p-id="2197"></path></svg>