<?xml version="1.0" standalone="no"?><!DOCTYPE svg PUBLIC "-//W3C//DTD SVG 1.1//EN" "http://www.w3.org/Graphics/SVG/1.1/DTD/svg11.dtd"><svg t="1593584552430" class="icon" viewBox="0 0 1236 1024" version="1.1" xmlns="http://www.w3.org/2000/svg" p-id="3160" xmlns:xlink="http://www.w3.org/1999/xlink" width="154.5" height="128"><defs><style type="text/css"></style></defs><path d="M41.21117 81.92A41.095245 41.095245 0 0 1 0 40.96C0 18.354717 18.451321 0 41.21117 0h989.222641c22.77917 0 41.230491 18.354717 41.230491 40.96 0 22.605283-18.451321 40.96-41.230491 40.96h-989.222641z m0 286.72A41.095245 41.095245 0 0 1 0 327.68c0-22.605283 18.451321-40.96 41.21117-40.96h412.188981c22.759849 0 41.21117 18.354717 41.21117 40.96 0 22.605283-18.451321 40.96-41.21117 40.96H41.21117zM865.569811 942.08c159.338264 0 288.51683-128.367094 288.516831-286.72S1024.908075 368.64 865.569811 368.64s-288.51683 128.367094-288.51683 286.72S706.231547 942.08 865.569811 942.08z m0 81.92c-204.877283 0-370.958491-165.037887-370.95849-368.64 0-203.602113 166.081208-368.64 370.95849-368.64S1236.528302 451.757887 1236.528302 655.36C1236.528302 858.962113 1070.447094 1024 865.569811 1024zM41.21117 655.36A41.095245 41.095245 0 0 1 0 614.4c0-22.605283 18.451321-40.96 41.21117-40.96h288.536151c22.759849 0 41.21117 18.354717 41.21117 40.96 0 22.605283-18.451321 40.96-41.21117 40.96H41.21117z m0 286.72A41.095245 41.095245 0 0 1 0 901.12c0-22.605283 18.451321-40.96 41.21117-40.96H370.958491c22.759849 0 41.21117 18.354717 41.211169 40.96 0 22.605283-18.451321 40.96-41.211169 40.96H41.21117zM981.107925 614.4c22.759849 0 41.21117 18.354717 41.211169 40.96 0 22.605283-18.451321 40.96-41.211169 40.96H865.569811a41.095245 41.095245 0 0 1-41.211169-40.96v-122.88c0-22.605283 18.451321-40.96 41.211169-40.96s41.21117 18.354717 41.21117 40.96v81.92h74.307623z" p-id="3161"></path></svg>